# xmcd
#
# Track frame offsets:
#	150
#	14012
#	34515
#
# Disc length: 676 seconds
#
# Revision: 0
# Processed by: cddbd v1.5.1PL0 Copyright (c) Steve Scherf et al.
# Submitted via: dBpowerAMP V4.0
#
DISCID=1b02a203
DTITLE=Various Artist - CD-Single
DYEAR=1995
DGENRE=Apres Ski
TTITLE0=Doe 'N Stapje Naar Voren (Radio Mix) - De Deurzakkers (Live)
TTITLE1=Doe 'N Stapje Naar Voren (Caribbean Dance Mix) - De Deurzakkers
TTITLE2=Lalala En Zo (Part 2) - De Deurzakkers
EXTD=
EXTT0=
EXTT1=
EXTT2=
PLAYORDER=
